<?xml version="1.0" encoding="UTF-8" standalone="no"?>
<!DOCTYPE svg PUBLIC "-//W3C//DTD SVG 1.1//EN" "http://www.w3.org/Graphics/SVG/1.1/DTD/svg11.dtd">
<svg version="1.1" xmlns="http://www.w3.org/2000/svg" xmlns:xlink="http://www.w3.org/1999/xlink" preserveAspectRatio="xMidYMid meet" viewBox="0 0 600 200" width="600" height="200"><defs><path d="M163.08 66.36C168.95 40.43 166.34 19.8 154.84 13.2C152.19 11.65 149.1 10.92 145.71 10.92C145.71 11.82 145.71 19.1 145.71 20.01C147.59 20.01 149.1 20.37 150.36 21.07C155.9 24.25 158.31 36.35 156.43 51.93C155.99 55.76 155.25 59.79 154.36 63.91C146.37 61.96 137.64 60.45 128.47 59.47C122.97 51.93 117.26 45.08 111.51 39.08C124.8 26.73 137.27 19.97 145.75 19.97C145.75 19.06 145.75 11.78 145.75 10.87C134.54 10.87 119.87 18.86 105.03 32.73C90.19 18.95 75.51 11.04 64.3 11.04C64.3 11.95 64.3 19.22 64.3 20.13C72.74 20.13 85.26 26.85 98.55 39.13C92.84 45.12 87.13 51.93 81.71 59.47C72.5 60.45 63.77 61.96 55.78 63.95C54.84 59.88 54.15 55.92 53.66 52.13C51.75 36.56 54.11 24.45 59.61 21.23C60.84 20.5 62.43 20.17 64.3 20.17C64.3 19.26 64.3 11.99 64.3 11.08C60.88 11.08 57.78 11.81 55.09 13.36C43.63 19.97 41.07 40.55 46.98 66.4C21.62 74.23 5.11 86.74 5.11 99.95C5.11 113.2 21.7 125.76 47.14 133.54C41.27 159.47 43.88 180.1 55.37 186.7C58.02 188.25 61.12 188.98 64.55 188.98C75.76 188.98 90.43 180.99 105.27 167.13C120.11 180.91 134.79 188.82 146 188.82C149.42 188.82 152.52 188.09 155.21 186.54C166.67 179.93 169.24 159.35 163.32 133.5C188.6 125.71 205.11 113.16 205.11 99.95C205.11 86.7 188.52 74.14 163.08 66.36ZM146.53 88.86C144.86 85.6 143.1 82.34 141.19 79.08C139.31 75.82 137.31 72.64 135.32 69.54C141.11 70.39 146.69 71.45 152.03 72.76C150.52 78.02 148.65 83.44 146.53 88.86ZM123.54 131.75C117.46 132.28 111.31 132.56 105.11 132.56C98.95 132.56 92.8 132.28 86.76 131.79C83.38 126.94 80.08 121.76 76.9 116.3C73.8 110.96 70.99 105.53 68.42 100.07C70.95 94.61 73.8 89.15 76.86 83.81C80.04 78.3 83.3 73.08 86.68 68.23C92.76 67.7 98.91 67.42 105.11 67.42C111.27 67.42 117.42 67.7 123.45 68.19C126.84 73.04 130.14 78.22 133.32 83.68C136.42 89.02 139.23 94.45 141.8 99.91C139.23 105.37 136.42 110.83 133.36 116.17C130.18 121.68 126.92 126.9 123.54 131.75ZM152.15 127.1C146.81 128.4 141.19 129.51 135.36 130.36C137.36 127.22 139.35 124 141.23 120.7C143.1 117.44 144.86 114.14 146.53 110.88C148.73 116.34 150.6 121.8 152.15 127.1ZM93.86 141.33C97.53 141.49 101.28 141.61 105.07 141.61C108.9 141.61 112.69 141.53 116.4 141.33C112.73 146.1 108.94 150.46 105.19 154.37C101.4 150.46 97.61 146.1 93.86 141.33ZM58.15 127.14C59.65 121.88 61.53 116.46 63.65 111.04C65.32 114.3 67.07 117.56 68.99 120.82C70.91 124.08 72.86 127.26 74.86 130.36C69.07 129.51 63.49 128.45 58.15 127.14ZM116.32 58.57C112.65 58.41 108.9 58.29 105.11 58.29C101.28 58.29 97.49 58.37 93.78 58.57C97.45 53.8 101.24 49.44 104.99 45.53C108.78 49.44 112.57 53.8 116.32 58.57ZM68.95 79.2C67.07 82.46 65.32 85.72 63.65 88.98C61.45 83.52 59.57 78.06 58.02 72.76C63.36 71.49 68.99 70.39 74.82 69.54C72.82 72.68 70.82 75.9 68.95 79.2ZM14.16 99.95C14.16 93.55 23.5 85.44 37.93 79.32C41.43 77.81 45.26 76.47 49.22 75.2C51.54 83.19 54.6 91.51 58.39 100.03C54.64 108.51 51.62 116.79 49.34 124.74C45.31 123.47 41.47 122.09 37.93 120.58C23.5 114.42 14.16 106.35 14.16 99.95ZM53.78 147.97C54.23 144.14 54.97 140.1 55.86 135.99C63.85 137.94 72.58 139.45 81.75 140.43C87.25 147.97 92.96 154.82 98.71 160.81C85.42 173.17 72.94 179.93 64.47 179.93C62.63 179.89 61.08 179.53 59.86 178.83C54.31 175.65 51.91 163.55 53.78 147.97ZM150.6 178.67C149.38 179.4 147.79 179.73 145.92 179.73C137.48 179.73 124.96 173 111.67 160.73C117.38 154.74 123.09 147.93 128.51 140.39C137.72 139.41 146.45 137.9 154.44 135.91C155.37 140.02 156.11 143.98 156.56 147.77C158.47 163.34 156.11 175.45 150.6 178.67ZM160.96 124.7C158.64 116.7 155.58 108.39 151.79 99.87C155.54 91.39 158.55 83.11 160.84 75.16C164.87 76.43 168.71 77.81 172.29 79.32C186.72 85.48 196.06 93.55 196.06 99.95C196.02 106.35 186.68 114.46 172.25 120.58C168.75 122.09 164.91 123.43 160.96 124.7Z" id="b1CiTZI1XL"></path><path d="M105.07 81.37C94.78 81.37 86.44 89.71 86.44 100C86.44 110.29 94.78 118.63 105.07 118.63C115.36 118.63 123.7 110.29 123.7 100C123.7 89.71 115.36 81.37 105.07 81.37Z" id="dcxKfdoXx"></path><path d="M316.63 94.14C316.63 56.17 316.63 35.08 316.63 30.86C316.63 27.62 314 25 310.77 25C307.53 25 304.91 27.62 304.91 30.86C304.91 35.08 304.91 56.17 304.91 94.14C266.94 94.14 245.84 94.14 241.63 94.14C238.39 94.14 235.77 96.76 235.77 100C235.77 103.24 238.39 105.86 241.63 105.86C245.84 105.86 266.94 105.86 304.91 105.86C304.91 143.83 304.91 164.92 304.91 169.14C304.91 172.38 307.53 175 310.77 175C314 175 316.63 172.38 316.63 169.14C316.63 164.92 316.63 143.83 316.63 105.86C354.59 105.86 375.69 105.86 379.91 105.86C383.14 105.86 385.77 103.24 385.77 100C385.77 96.76 383.14 94.14 379.91 94.14C371.47 94.14 350.38 94.14 316.63 94.14Z" id="b1pKT04ofs"></path><path d="M547.41 73.29C571.61 97.49 571.61 136.9 547.41 161.11C523.21 185.31 483.79 185.31 459.59 161.11C435.39 136.9 435.39 97.49 459.59 73.29C462.17 70.71 475.08 57.8 498.31 34.57L503.15 29.04L503.15 0C467.89 35.26 448.3 54.85 444.38 58.77C412.11 90.71 411.85 142.77 443.79 175.04C443.99 175.23 444.18 175.43 444.38 175.63C476.32 207.89 528.38 208.16 560.65 176.21C560.84 176.02 561.04 175.82 561.24 175.63C594.43 143.13 594.43 90.58 561.93 58.77C559.02 61.68 548.86 71.84 547.41 73.29Z" id="d2j4l06Nhc"></path><path d="M453.36 9.6C451.55 9.6 450.09 11.07 450.09 12.87C450.09 14.68 451.55 16.14 453.36 16.14C455.16 16.14 456.63 14.68 456.63 12.87C456.63 11.07 455.16 9.6 453.36 9.6Z" id="cPyR76Eep"></path></defs><g><g><g><use xlink:href="#b1CiTZI1XL" opacity="1" fill="#61dafb" fill-opacity="1"></use><g><use xlink:href="#b1CiTZI1XL" opacity="1" fill-opacity="0" stroke="#000000" stroke-width="1" stroke-opacity="0"></use></g></g><g><use xlink:href="#dcxKfdoXx" opacity="1" fill="#61dafb" fill-opacity="1"></use><g><use xlink:href="#dcxKfdoXx" opacity="1" fill-opacity="0" stroke="#000000" stroke-width="1" stroke-opacity="0"></use></g></g><g><use xlink:href="#b1pKT04ofs" opacity="1" fill="#000000" fill-opacity="1"></use><g><use xlink:href="#b1pKT04ofs" opacity="1" fill-opacity="0" stroke="#000000" stroke-width="1" stroke-opacity="0"></use></g></g><g><use xlink:href="#d2j4l06Nhc" opacity="1" fill="#ee4c2c" fill-opacity="1"></use><g><use xlink:href="#d2j4l06Nhc" opacity="1" fill-opacity="0" stroke="#000000" stroke-width="1" stroke-opacity="0"></use></g></g><g><use xlink:href="#cPyR76Eep" opacity="1" fill="#ee4c2c" fill-opacity="1"></use><g><use xlink:href="#cPyR76Eep" opacity="1" fill-opacity="0" stroke="#000000" stroke-width="1" stroke-opacity="0"></use></g></g></g></g></svg>