<?xml version="1.0" encoding="UTF-8" standalone="no"?>
<!DOCTYPE svg PUBLIC "-//W3C//DTD SVG 1.1//EN" "http://www.w3.org/Graphics/SVG/1.1/DTD/svg11.dtd">
<svg version="1.1" xmlns="http://www.w3.org/2000/svg" xmlns:xlink="http://www.w3.org/1999/xlink" preserveAspectRatio="xMidYMid meet" viewBox="0 0 600 200" width="600" height="200"><defs><path d="M532 115.86C531.78 109.02 526.29 103.55 519.71 103.55C519.67 103.55 519.31 103.55 519.27 103.55C512.47 103.78 507.2 109.71 507.42 116.77C507.64 120.19 508.96 123.15 510.93 125.2C503.47 140.47 492.06 151.64 474.95 160.98C463.32 167.36 451.25 169.64 439.18 168.04C429.31 166.68 421.63 162.12 416.8 154.6C409.78 143.43 409.12 131.35 415.04 119.28C419.21 110.62 425.8 104.24 429.97 101.05C429.09 98.08 427.77 93.07 427.11 89.42C395.3 113.35 398.59 145.71 408.24 160.98C415.48 172.37 430.18 179.44 446.42 179.44C450.81 179.44 455.2 178.98 459.59 177.84C487.67 172.15 508.96 154.83 521.03 129.08C527.39 128.39 532.22 122.69 532 115.86ZM490.31 69.37C489.96 69.37 487.15 69.37 486.8 69.37C484.82 65.27 480.65 62.53 476.04 62.53C476 62.53 475.65 62.53 475.61 62.53C468.8 62.76 463.54 68.69 463.76 75.75C463.98 82.59 469.46 88.06 476.04 88.06C476.09 88.06 476.44 88.06 476.48 88.06C481.31 87.83 485.48 84.64 487.23 80.31C487.63 80.31 490.79 80.31 491.18 80.31C507.86 80.31 523.66 85.32 537.92 95.12C548.89 102.64 556.79 112.44 561.18 124.29C564.91 133.86 564.69 143.2 560.74 151.18C554.6 163.26 544.29 169.87 530.68 169.87C521.9 169.87 513.57 167.13 509.18 165.08C506.76 167.36 502.38 171.01 499.3 173.28C508.74 177.84 518.39 180.35 527.61 180.35C548.67 180.35 564.25 168.27 570.18 156.19C576.54 142.98 576.1 120.19 559.64 100.82C542.97 80.54 518.39 69.37 490.31 69.37ZM460.47 145.26C460.51 145.26 460.86 145.26 460.9 145.26C467.71 145.03 472.97 139.1 472.75 132.04C472.53 125.2 467.05 119.73 460.47 119.73C460.42 119.73 460.07 119.73 460.03 119.73C459.59 119.73 458.93 119.73 458.49 119.96C449.49 104.46 445.76 87.6 447.08 69.37C447.96 55.7 452.35 43.85 460.03 34.05C466.39 25.62 478.68 21.52 487.02 21.29C510.27 20.83 520.15 50.91 520.81 62.99C523.66 63.67 528.49 65.27 531.78 66.41C529.14 29.49 507.2 10.35 486.14 10.35C466.39 10.35 448.18 25.16 440.94 47.04C430.84 76.21 437.43 104.24 449.71 126.34C448.62 127.94 447.96 130.44 448.18 132.95C448.4 139.79 453.88 145.26 460.47 145.26Z" id="c1mwAWW2Ld"></path><path d="M20.16 95.35L20.16 180.35L190.16 180.35L190.16 10.35L20.16 10.35L20.16 95.35ZM167.78 94.7C169.35 96.38 171.67 99.43 171.86 100.15C171.91 100.37 164.52 105.33 160.04 108.11C159.88 108.22 159.23 107.52 158.5 106.44C156.31 103.25 154.02 101.88 150.51 101.64C145.36 101.29 142.01 103.99 142.07 108.49C142.07 109.81 142.25 110.6 142.79 111.68C143.93 114.03 146.03 115.43 152.64 118.29C164.81 123.53 170.02 126.98 173.25 131.89C176.87 137.37 177.68 146.11 175.22 152.62C172.53 159.69 165.84 164.49 156.42 166.08C153.51 166.6 146.6 166.52 143.47 165.95C136.64 164.74 130.17 161.36 126.17 156.94C124.6 155.21 121.56 150.7 121.75 150.38C121.83 150.27 122.53 149.84 123.31 149.38C123.73 149.14 125.84 147.92 129.63 145.74L134.51 142.9C135.13 143.81 135.47 144.32 135.54 144.42C136.97 146.6 140.1 149.6 141.99 150.6C147.41 153.46 154.86 153.05 158.53 149.76C160.1 148.33 160.74 146.85 160.74 144.66C160.74 142.69 160.5 141.83 159.47 140.34C158.15 138.46 155.45 136.86 147.79 133.54C139.02 129.77 135.24 127.42 131.79 123.7C129.79 121.54 127.9 118.08 127.12 115.2C126.47 112.79 126.31 106.78 126.82 104.35C128.62 95.85 135.02 89.96 144.25 88.21C147.25 87.65 154.21 87.86 157.15 88.59C161.47 89.66 164.76 91.57 167.78 94.7ZM117.24 95.67L117.3 102.63L95.17 102.63L95.17 165.5L79.52 165.5L79.52 102.63L57.39 102.63L57.39 95.8C57.51 91.6 57.57 89.26 57.58 88.79C57.66 88.68 71.13 88.63 87.45 88.66C89.43 88.66 99.34 88.69 117.16 88.74L117.24 95.67Z" id="bpFrafQJE"></path><path d="M922.91 1034.22C810.04 1034.22 718.54 1125.72 718.54 1238.6C718.54 1351.47 810.04 1442.97 922.91 1442.97C1035.78 1442.97 1127.28 1351.47 1127.28 1238.6C1127.28 1125.72 1035.78 1034.22 922.91 1034.22Z" id="a2RhWQg8hS"></path><path d="M99.03 86.07C96.38 84.52 93.29 83.79 89.9 83.79C89.9 84.69 89.9 91.97 89.9 92.88C91.78 92.88 93.29 93.24 94.55 93.94C100.09 97.12 102.5 109.22 100.62 124.8C100.18 128.63 99.44 132.66 98.55 136.78C90.56 134.83 81.83 133.32 72.66 132.34C67.16 124.8 61.45 117.95 55.7 111.95C68.99 99.6 81.46 92.84 89.94 92.84C89.94 91.93 89.94 84.65 89.94 83.74C78.73 83.74 64.06 91.73 49.22 105.6C34.38 91.82 19.7 83.91 8.49 83.91C8.49 84.82 8.49 92.09 8.49 93C16.93 93 29.45 99.72 42.74 112C37.03 117.99 31.32 124.8 25.9 132.34C16.69 133.32 7.96 134.83 -0.03 136.82C-0.97 132.75 -1.66 128.79 -2.15 125C-4.06 109.43 -1.7 97.32 3.8 94.1C5.03 93.37 6.62 93.04 8.49 93.04C8.49 92.13 8.49 84.86 8.49 83.95C5.07 83.95 1.97 84.68 -0.72 86.23C-12.18 92.84 -14.74 113.42 -8.83 139.27C-34.19 147.1 -50.7 159.61 -50.7 172.82C-50.7 186.07 -34.11 198.63 -8.67 206.41C-14.54 232.34 -11.93 252.97 -0.44 259.57C2.21 261.12 5.31 261.85 8.74 261.85C19.95 261.85 34.62 253.86 49.46 240C64.3 253.78 78.98 261.69 90.19 261.69C93.61 261.69 96.71 260.96 99.4 259.41C110.86 252.8 113.43 232.22 107.51 206.37C132.79 198.58 149.3 186.03 149.3 172.82C149.3 159.57 132.71 147.01 107.27 139.23C113.14 113.3 110.53 92.67 99.03 86.07ZM85.38 151.95C83.5 148.69 81.5 145.51 79.51 142.41C85.3 143.26 90.88 144.32 96.22 145.63C94.71 150.89 92.84 156.31 90.72 161.73C89.05 158.47 87.29 155.21 85.38 151.95ZM49.3 205.43C43.14 205.43 36.99 205.15 30.95 204.66C27.57 199.81 24.27 194.63 21.09 189.17C17.99 183.83 15.18 178.4 12.61 172.94C15.14 167.48 17.99 162.02 21.05 156.68C24.23 151.17 27.49 145.95 30.87 141.1C36.95 140.57 43.1 140.29 49.3 140.29C55.46 140.29 61.61 140.57 67.64 141.06C71.03 145.91 74.33 151.09 77.51 156.55C80.61 161.89 83.42 167.32 85.99 172.78C83.42 178.24 80.61 183.7 77.55 189.04C74.37 194.55 71.11 199.77 67.73 204.62C61.65 205.15 55.5 205.43 49.3 205.43ZM79.55 203.23C81.55 200.09 83.54 196.87 85.42 193.57C87.29 190.31 89.05 187.01 90.72 183.75C92.92 189.21 94.79 194.67 96.34 199.97C91 201.27 85.38 202.38 79.55 203.23ZM49.26 214.48C53.09 214.48 56.88 214.4 60.59 214.2C56.92 218.97 53.13 223.33 49.38 227.24C45.59 223.33 41.8 218.97 38.05 214.2C41.72 214.36 45.47 214.48 49.26 214.48ZM7.84 183.91C9.51 187.17 11.26 190.43 13.18 193.69C15.1 196.95 17.05 200.13 19.05 203.23C13.26 202.38 7.68 201.32 2.34 200.01C3.84 194.75 5.72 189.33 7.84 183.91ZM49.3 131.16C45.47 131.16 41.68 131.24 37.97 131.44C41.64 126.67 45.43 122.31 49.18 118.4C52.97 122.31 56.76 126.67 60.51 131.44C56.84 131.28 53.09 131.16 49.3 131.16ZM7.84 161.85C5.64 156.39 3.76 150.93 2.21 145.63C7.55 144.36 13.18 143.26 19.01 142.41C17.01 145.55 15.01 148.77 13.14 152.07C11.26 155.33 9.51 158.59 7.84 161.85ZM-17.88 152.19C-14.38 150.68 -10.55 149.34 -6.59 148.07C-4.27 156.06 -1.21 164.38 2.58 172.9C-1.17 181.38 -4.19 189.66 -6.47 197.61C-10.5 196.34 -14.34 194.96 -17.88 193.45C-32.31 187.29 -41.65 179.22 -41.65 172.82C-41.65 166.42 -32.31 158.31 -17.88 152.19ZM0.05 208.86C8.04 210.81 16.77 212.32 25.94 213.3C31.44 220.84 37.15 227.69 42.9 233.68C29.61 246.04 17.13 252.8 8.66 252.8C6.82 252.76 5.27 252.4 4.05 251.7C-1.5 248.52 -3.9 236.42 -2.03 220.84C-1.58 217.01 -0.84 212.97 0.05 208.86ZM90.11 252.6C81.67 252.6 69.15 245.87 55.86 233.6C61.57 227.61 67.28 220.8 72.7 213.26C81.91 212.28 90.64 210.77 98.63 208.78C99.56 212.89 100.3 216.85 100.75 220.64C102.66 236.21 100.3 248.32 94.79 251.54C93.57 252.27 91.98 252.6 90.11 252.6ZM95.98 172.74C99.73 164.26 102.74 155.98 105.03 148.03C109.06 149.3 112.9 150.68 116.48 152.19C130.91 158.35 140.25 166.42 140.25 172.82C140.21 179.22 130.87 187.33 116.44 193.45C112.94 194.96 109.1 196.3 105.15 197.57C102.83 189.57 99.77 181.26 95.98 172.74Z" id="c2pCRm5lKf"></path><path d="M305.78 26.21C305.78 22.97 303.15 20.35 299.92 20.35C296.68 20.35 294.06 22.97 294.06 26.21C294.06 30.43 294.06 51.52 294.06 89.49C256.09 89.49 234.99 89.49 230.78 89.49C227.54 89.49 224.92 92.11 224.92 95.35C224.92 98.59 227.54 101.21 230.78 101.21C234.99 101.21 256.09 101.21 294.06 101.21C294.06 139.18 294.06 160.27 294.06 164.49C294.06 167.73 296.68 170.35 299.92 170.35C303.15 170.35 305.78 167.73 305.78 164.49C305.78 160.27 305.78 139.18 305.78 101.21C343.74 101.21 364.84 101.21 369.06 101.21C372.29 101.21 374.92 98.59 374.92 95.35C374.92 92.11 372.29 89.49 369.06 89.49C360.62 89.49 339.53 89.49 305.78 89.49C305.78 51.52 305.78 30.43 305.78 26.21Z" id="c2aamCBVwr"></path><path d="M336.79 192.1C336.79 188.86 334.16 186.24 330.93 186.24C327.69 186.24 325.07 188.86 325.07 192.1C325.07 196.32 325.07 217.41 325.07 255.38C287.1 255.38 266 255.38 261.79 255.38C258.55 255.38 255.93 258 255.93 261.24C255.93 264.48 258.55 267.1 261.79 267.1C266 267.1 287.1 267.1 325.07 267.1C325.07 305.07 325.07 326.16 325.07 330.38C325.07 333.62 327.69 336.24 330.93 336.24C334.16 336.24 336.79 333.62 336.79 330.38C336.79 326.16 336.79 305.07 336.79 267.1C374.75 267.1 395.85 267.1 400.07 267.1C403.3 267.1 405.93 264.48 405.93 261.24C405.93 258 403.3 255.38 400.07 255.38C391.63 255.38 370.54 255.38 336.79 255.38C336.79 217.41 336.79 196.32 336.79 192.1Z" id="d2U1m4yYHD"></path></defs><g><g><g><use xlink:href="#c1mwAWW2Ld" opacity="1" fill="#764abc" fill-opacity="1"></use><g><use xlink:href="#c1mwAWW2Ld" opacity="1" fill-opacity="0" stroke="#000000" stroke-width="1" stroke-opacity="0"></use></g></g><g><use xlink:href="#bpFrafQJE" opacity="1" fill="#007acc" fill-opacity="1"></use><g><use xlink:href="#bpFrafQJE" opacity="1" fill-opacity="0" stroke="#000000" stroke-width="1" stroke-opacity="0"></use></g></g><g><use xlink:href="#a2RhWQg8hS" opacity="1" fill="#61dafb" fill-opacity="1"></use><g><use xlink:href="#a2RhWQg8hS" opacity="1" fill-opacity="0" stroke="#000000" stroke-width="1" stroke-opacity="0"></use></g></g><g><use xlink:href="#c2pCRm5lKf" opacity="1" fill="#000000" fill-opacity="0"></use><g><use xlink:href="#c2pCRm5lKf" opacity="1" fill-opacity="0" stroke="#000000" stroke-width="1" stroke-opacity="0"></use></g></g><g><use xlink:href="#c2aamCBVwr" opacity="1" fill="#000000" fill-opacity="1"></use><g><use xlink:href="#c2aamCBVwr" opacity="1" fill-opacity="0" stroke="#000000" stroke-width="1" stroke-opacity="0"></use></g></g><g><use xlink:href="#d2U1m4yYHD" opacity="1" fill="#000000" fill-opacity="0"></use><g><use xlink:href="#d2U1m4yYHD" opacity="1" fill-opacity="0" stroke="#000000" stroke-width="1" stroke-opacity="0"></use></g></g></g></g></svg>