<?xml version="1.0" encoding="UTF-8" standalone="no"?>
<!DOCTYPE svg PUBLIC "-//W3C//DTD SVG 1.1//EN" "http://www.w3.org/Graphics/SVG/1.1/DTD/svg11.dtd">
<svg version="1.1" xmlns="http://www.w3.org/2000/svg" xmlns:xlink="http://www.w3.org/1999/xlink" preserveAspectRatio="xMidYMid meet" viewBox="0 0 640 640" width="200" height="200"><defs><path d="M336 144C338.12 144 340.16 143.16 341.66 141.66C347.9 135.41 379.12 104.19 435.31 48C443.81 48 448.53 48 449.47 48C452.78 57.29 461.58 64 472 64C485.23 64 496 53.23 496 40C496 26.77 485.23 16 472 16C461.58 16 452.78 22.71 449.47 32C447.72 32 433.75 32 432 32C429.88 32 427.84 32.84 426.34 34.34C420.1 40.59 388.88 71.81 332.69 128L320 128C320 123.2 320 120.53 320 120C320 106.77 309.23 96 296 96C282.77 96 272 106.77 272 120C272 121.6 272 129.6 272 144C247.52 144 233.91 144 231.19 144C227.47 125.77 211.32 112 192 112C181.98 112 172.93 115.83 165.9 121.94C158.5 116.28 99.26 71.05 91.86 65.39C94.43 60.1 96 54.26 96 48C96 25.94 78.06 8 56 8C33.94 8 16 25.94 16 48C16 70.06 33.94 88 56 88C66.02 88 75.07 84.17 82.1 78.06C89.5 83.72 148.74 128.95 156.14 134.61C154.7 137.58 153.49 140.67 152.81 143.99C147.05 143.99 100.95 143.99 95.19 143.99C91.47 125.77 75.31 112 56 112C33.94 112 16 129.94 16 152C16 174.06 33.94 192 56 192C66.02 192 75.07 188.17 82.1 182.06C84.01 183.53 93.58 190.84 110.82 204C93.58 217.16 84.01 224.47 82.1 225.94C75.07 219.83 66.02 216 56 216C33.94 216 16 233.94 16 256C16 278.06 33.94 296 56 296C66.02 296 75.07 292.17 82.1 286.06C84.01 287.53 93.58 294.84 110.82 308C93.58 321.16 84.01 328.47 82.1 329.94C75.07 323.83 66.02 320 56 320C33.94 320 16 337.94 16 360C16 382.06 33.94 400 56 400C75.31 400 91.47 386.23 95.19 368C100.95 368 147.05 368 152.81 368C153.49 371.32 154.7 374.42 156.14 377.38C148.74 383.04 89.5 428.27 82.1 433.93C75.07 427.83 66.02 424 56 424C33.94 424 16 441.94 16 464C16 486.06 33.94 504 56 504C78.06 504 96 486.06 96 464C96 457.74 94.43 451.9 91.86 446.62C99.26 440.96 158.5 395.73 165.9 390.07C172.93 396.17 181.98 400 192 400C211.31 400 227.47 386.23 231.19 368C233.91 368 247.52 368 272 368C272 377.6 272 382.93 272 384C272 397.23 282.77 408 296 408C309.23 408 320 397.23 320 384C320.85 384 325.08 384 332.69 384C388.88 440.19 420.1 471.41 426.34 477.66C427.84 479.16 429.88 480 432 480C433.75 480 447.72 480 449.47 480C452.78 489.29 461.58 496 472 496C485.23 496 496 485.23 496 472C496 458.77 485.23 448 472 448C461.58 448 452.78 454.71 449.47 464C448.53 464 443.81 464 435.31 464C379.12 407.81 347.9 376.59 341.66 370.34C340.16 368.84 338.12 368 336 368C334.93 368 329.6 368 320 368L320 344L356.69 344C393.68 380.99 414.23 401.55 418.34 405.66C419.84 407.16 421.88 408 424 408C426.55 408 446.92 408 449.47 408C452.78 417.29 461.58 424 472 424C485.23 424 496 413.23 496 400C496 386.77 485.23 376 472 376C461.58 376 452.78 382.71 449.47 392C447.99 392 440.61 392 427.31 392C390.32 355.01 369.77 334.45 365.66 330.34C364.16 328.84 362.12 328 360 328C357.33 328 344 328 320 328L320 304L388.69 304C406.48 321.79 416.37 331.68 418.34 333.66C419.84 335.16 421.88 336 424 336C426.55 336 446.92 336 449.47 336C452.78 345.29 461.58 352 472 352C485.23 352 496 341.23 496 328C496 314.77 485.23 304 472 304C461.58 304 452.78 310.71 449.47 320C447.99 320 440.61 320 427.31 320C409.52 302.21 399.63 292.32 397.66 290.34C396.16 288.84 394.12 288 392 288C387.2 288 363.2 288 320 288L320 264C397.68 264 440.84 264 449.47 264C452.78 273.29 461.58 280 472 280C485.23 280 496 269.23 496 256C496 242.77 485.23 232 472 232C461.58 232 452.78 238.71 449.47 248C440.84 248 397.68 248 320 248L320 224C363.2 224 387.2 224 392 224C394.12 224 396.16 223.16 397.66 221.66C399.63 219.68 409.52 209.79 427.31 192C440.61 192 447.99 192 449.47 192C452.78 201.29 461.58 208 472 208C485.23 208 496 197.23 496 184C496 170.77 485.23 160 472 160C461.58 160 452.78 166.71 449.47 176C446.92 176 426.55 176 424 176C421.88 176 419.84 176.84 418.34 178.34C416.37 180.32 406.48 190.21 388.69 208L320 208L320 184C344 184 357.33 184 360 184C362.12 184 364.16 183.16 365.66 181.66C369.77 177.55 390.32 156.99 427.31 120C440.61 120 447.99 120 449.47 120C452.78 129.29 461.58 136 472 136C485.23 136 496 125.23 496 112C496 98.77 485.23 88 472 88C461.58 88 452.78 94.71 449.47 104C446.92 104 426.55 104 424 104C421.88 104 419.84 104.84 418.34 106.34C414.23 110.45 393.68 131.01 356.69 168L320 168L320 144C328.53 144 333.87 144 336 144ZM480 40C480 44.42 476.41 48 472 48C467.59 48 464 44.42 464 40C464 35.58 467.59 32 472 32C476.41 32 480 35.58 480 40ZM480 472C480 476.42 476.41 480 472 480C467.59 480 464 476.42 464 472C464 467.58 467.59 464 472 464C476.41 464 480 467.58 480 472ZM480 400C480 404.42 476.41 408 472 408C467.59 408 464 404.42 464 400C464 395.58 467.59 392 472 392C476.41 392 480 395.58 480 400ZM480 328C480 332.42 476.41 336 472 336C467.59 336 464 332.42 464 328C464 323.58 467.59 320 472 320C476.41 320 480 323.58 480 328ZM480 256C480 260.42 476.41 264 472 264C467.59 264 464 260.42 464 256C464 251.58 467.59 248 472 248C476.41 248 480 251.58 480 256ZM480 184C480 188.42 476.41 192 472 192C467.59 192 464 188.42 464 184C464 179.58 467.59 176 472 176C476.41 176 480 179.58 480 184ZM480 112C480 116.42 476.41 120 472 120C467.59 120 464 116.42 464 112C464 107.58 467.59 104 472 104C476.41 104 480 107.58 480 112ZM272 160L272 248C247.52 248 233.91 248 231.19 248C227.47 229.77 211.32 216 192 216C181.98 216 172.93 219.83 165.9 225.94C163.99 224.47 154.42 217.16 137.18 204C154.42 190.84 163.99 183.53 165.9 182.06C172.93 188.17 181.98 192 192 192C211.31 192 227.47 178.23 231.19 160C236.63 160 250.24 160 272 160ZM192 232C205.23 232 216 242.77 216 256C216 269.23 205.23 280 192 280C178.77 280 168 269.23 168 256C168 242.77 178.77 232 192 232ZM216 152C216 165.23 205.23 176 192 176C178.77 176 168 165.23 168 152C168 138.77 178.77 128 192 128C205.23 128 216 138.77 216 152ZM32 48C32 34.77 42.77 24 56 24C69.23 24 80 34.77 80 48C80 61.23 69.23 72 56 72C42.77 72 32 61.23 32 48ZM32 152C32 138.77 42.77 128 56 128C69.23 128 80 138.77 80 152C80 165.23 69.23 176 56 176C42.77 176 32 165.23 32 152ZM91.86 169.38C93.3 166.42 94.51 163.32 95.19 160C100.95 160 147.05 160 152.81 160C153.49 163.32 154.7 166.42 156.14 169.38C154 171.02 143.29 179.2 124 193.94C106.86 180.84 96.14 172.66 91.86 169.38ZM156.14 238.62C154.7 241.58 153.49 244.68 152.81 248C147.05 248 100.95 248 95.19 248C94.51 244.68 93.3 241.58 91.86 238.62C94 236.98 104.71 228.8 124 214.07C141.14 227.16 151.86 235.34 156.14 238.62ZM32 256C32 242.77 42.77 232 56 232C69.23 232 80 242.77 80 256C80 269.23 69.23 280 56 280C42.77 280 32 269.23 32 256ZM91.86 273.38C93.3 270.42 94.51 267.32 95.19 264C100.95 264 147.05 264 152.81 264C153.49 267.32 154.7 270.42 156.14 273.38C154 275.02 143.29 283.2 124 297.94C106.86 284.84 96.14 276.66 91.86 273.38ZM95.19 352C94.51 348.68 93.3 345.58 91.86 342.62C94 340.98 104.71 332.8 124 318.07C143.29 332.8 154 340.98 156.14 342.62C154.7 345.58 153.49 348.68 152.81 352C141.28 352 100.95 352 95.19 352ZM32 360C32 346.77 42.77 336 56 336C69.23 336 80 346.77 80 360C80 373.23 69.23 384 56 384C42.77 384 32 373.23 32 360ZM32 464C32 450.77 42.77 440 56 440C69.23 440 80 450.77 80 464C80 477.23 69.23 488 56 488C42.77 488 32 477.23 32 464ZM168 360C168 346.77 178.77 336 192 336C205.23 336 216 346.77 216 360C216 373.23 205.23 384 192 384C178.77 384 168 373.23 168 360ZM231.19 352C227.47 333.77 211.32 320 192 320C181.98 320 172.93 323.83 165.9 329.94C163.99 328.47 154.42 321.16 137.18 308C154.42 294.84 163.99 287.53 165.9 286.06C172.93 292.17 181.98 296 192 296C211.31 296 227.47 282.23 231.19 264C233.91 264 247.52 264 272 264L272 352C250.24 352 236.63 352 231.19 352ZM304 384C304 388.42 300.41 392 296 392C291.59 392 288 388.42 288 384C288 357.6 288 146.4 288 120C288 115.58 291.59 112 296 112C300.41 112 304 115.58 304 120C304 172.8 304 331.2 304 384Z" id="kVc8AKCI1"></path><path d="M240 184L256 184L256 200L240 200L240 184Z" id="e1bS6oVkZ1"></path><path d="M240 216L256 216L256 232L240 232L240 216Z" id="a1UweH6MUy"></path><path d="M240 280L256 280L256 296L240 296L240 280Z" id="d904wRMjSj"></path><path d="M240 312L256 312L256 328L240 328L240 312Z" id="e3xRwYpeo"></path><path d="M82 47.61C82 61.9 70.05 73.5 55.34 73.5C40.63 73.5 28.68 61.9 28.68 47.61C28.68 33.33 40.63 21.73 55.34 21.73C70.05 21.73 82 33.33 82 47.61Z" id="lCrpPY5pr"></path><path d="M82 150.34C82 164.63 70.05 176.23 55.34 176.23C40.63 176.23 28.68 164.63 28.68 150.34C28.68 136.05 40.63 124.45 55.34 124.45C70.05 124.45 82 136.05 82 150.34Z" id="aPr3JWZfm"></path><path d="M82 254.11C82 268.4 70.05 280 55.34 280C40.63 280 28.68 268.4 28.68 254.11C28.68 239.83 40.63 228.23 55.34 228.23C70.05 228.23 82 239.83 82 254.11Z" id="i2Nq2c91B"></path><path d="M82 359.16C82 373.45 70.05 385.05 55.34 385.05C40.63 385.05 28.68 373.45 28.68 359.16C28.68 344.87 40.63 333.27 55.34 333.27C70.05 333.27 82 344.87 82 359.16Z" id="a4uc80PTb"></path><path d="M82 464.2C82 478.49 70.05 490.09 55.34 490.09C40.63 490.09 28.68 478.49 28.68 464.2C28.68 449.92 40.63 438.32 55.34 438.32C70.05 438.32 82 449.92 82 464.2Z" id="fuXgnmMJB"></path><path d="M217.91 150.34C217.91 164.63 205.96 176.23 191.25 176.23C176.54 176.23 164.59 164.63 164.59 150.34C164.59 136.05 176.54 124.45 191.25 124.45C205.96 124.45 217.91 136.05 217.91 150.34Z" id="a50fHYQ3Cq"></path><path d="M219.41 256C219.41 270.29 207.46 281.89 192.75 281.89C178.04 281.89 166.09 270.29 166.09 256C166.09 241.71 178.04 230.11 192.75 230.11C207.46 230.11 219.41 241.71 219.41 256Z" id="a7LOt0DeVd"></path><path d="M219.41 359.16C219.41 373.45 207.46 385.05 192.75 385.05C178.04 385.05 166.09 373.45 166.09 359.16C166.09 344.87 178.04 333.27 192.75 333.27C207.46 333.27 219.41 344.87 219.41 359.16Z" id="ip40bRmM0"></path><path d="M482.27 40.08C482.27 45.09 477.94 49.16 472.61 49.16C467.28 49.16 462.95 45.09 462.95 40.08C462.95 35.07 467.28 31 472.61 31C477.94 31 482.27 35.07 482.27 40.08Z" id="b3bUKaZwQA"></path><path d="M482.27 111.13C482.27 116.14 477.94 120.2 472.61 120.2C467.28 120.2 462.95 116.14 462.95 111.13C462.95 106.11 467.28 102.05 472.61 102.05C477.94 102.05 482.27 106.11 482.27 111.13Z" id="b6a0jRkwDd"></path><path d="M482.27 184C482.27 189.01 477.94 193.08 472.61 193.08C467.28 193.08 462.95 189.01 462.95 184C462.95 178.99 467.28 174.92 472.61 174.92C477.94 174.92 482.27 178.99 482.27 184Z" id="c52M9D2oVJ"></path><path d="M482.27 256C482.27 261.01 477.94 265.08 472.61 265.08C467.28 265.08 462.95 261.01 462.95 256C462.95 250.99 467.28 246.92 472.61 246.92C477.94 246.92 482.27 250.99 482.27 256Z" id="a30bz70MEK"></path><path d="M482.27 328C482.27 333.01 477.94 337.08 472.61 337.08C467.28 337.08 462.95 333.01 462.95 328C462.95 322.99 467.28 318.92 472.61 318.92C477.94 318.92 482.27 322.99 482.27 328Z" id="c31xL8OcWr"></path><path d="M482.27 399.82C482.27 404.83 477.94 408.9 472.61 408.9C467.28 408.9 462.95 404.83 462.95 399.82C462.95 394.81 467.28 390.74 472.61 390.74C477.94 390.74 482.27 394.81 482.27 399.82Z" id="cikKIgBkD"></path><path d="M482.27 470.86C482.27 475.87 477.94 479.94 472.61 479.94C467.28 479.94 462.95 475.87 462.95 470.86C462.95 465.85 467.28 461.78 472.61 461.78C477.94 461.78 482.27 465.85 482.27 470.86Z" id="d3hGS7Sgc"></path></defs><g><g><g><use xlink:href="#kVc8AKCI1" opacity="1" fill="#000000" fill-opacity="1"></use><g><use xlink:href="#kVc8AKCI1" opacity="1" fill-opacity="0" stroke="#000000" stroke-width="1" stroke-opacity="0"></use></g></g><g><use xlink:href="#e1bS6oVkZ1" opacity="1" fill="#000000" fill-opacity="1"></use><g><use xlink:href="#e1bS6oVkZ1" opacity="1" fill-opacity="0" stroke="#000000" stroke-width="1" stroke-opacity="0"></use></g></g><g><use xlink:href="#a1UweH6MUy" opacity="1" fill="#000000" fill-opacity="1"></use><g><use xlink:href="#a1UweH6MUy" opacity="1" fill-opacity="0" stroke="#000000" stroke-width="1" stroke-opacity="0"></use></g></g><g><use xlink:href="#d904wRMjSj" opacity="1" fill="#000000" fill-opacity="1"></use><g><use xlink:href="#d904wRMjSj" opacity="1" fill-opacity="0" stroke="#000000" stroke-width="1" stroke-opacity="0"></use></g></g><g><use xlink:href="#e3xRwYpeo" opacity="1" fill="#000000" fill-opacity="1"></use><g><use xlink:href="#e3xRwYpeo" opacity="1" fill-opacity="0" stroke="#000000" stroke-width="1" stroke-opacity="0"></use></g></g><g><use xlink:href="#lCrpPY5pr" opacity="1" fill="#41b9cb" fill-opacity="1"></use></g><g><use xlink:href="#aPr3JWZfm" opacity="1" fill="#41b9cb" fill-opacity="1"></use></g><g><use xlink:href="#i2Nq2c91B" opacity="1" fill="#41b9cb" fill-opacity="1"></use></g><g><use xlink:href="#a4uc80PTb" opacity="1" fill="#41b9cb" fill-opacity="1"></use></g><g><use xlink:href="#fuXgnmMJB" opacity="1" fill="#41b9cb" fill-opacity="1"></use></g><g><use xlink:href="#a50fHYQ3Cq" opacity="1" fill="#41b9cb" fill-opacity="1"></use></g><g><use xlink:href="#a7LOt0DeVd" opacity="1" fill="#41b9cb" fill-opacity="1"></use></g><g><use xlink:href="#ip40bRmM0" opacity="1" fill="#41b9cb" fill-opacity="1"></use></g><g><use xlink:href="#b3bUKaZwQA" opacity="1" fill="#cb4941" fill-opacity="1"></use></g><g><use xlink:href="#b6a0jRkwDd" opacity="1" fill="#41cb8a" fill-opacity="1"></use></g><g><use xlink:href="#c52M9D2oVJ" opacity="1" fill="#cb4441" fill-opacity="1"></use></g><g><use xlink:href="#a30bz70MEK" opacity="1" fill="#41cb8a" fill-opacity="1"></use></g><g><use xlink:href="#c31xL8OcWr" opacity="1" fill="#cb4141" fill-opacity="1"></use></g><g><use xlink:href="#cikKIgBkD" opacity="1" fill="#41cb8a" fill-opacity="1"></use></g><g><use xlink:href="#d3hGS7Sgc" opacity="1" fill="#cb4141" fill-opacity="1"></use></g></g></g></svg>