<?xml version="1.0" encoding="UTF-8" standalone="no"?>
<!DOCTYPE svg PUBLIC "-//W3C//DTD SVG 1.1//EN" "http://www.w3.org/Graphics/SVG/1.1/DTD/svg11.dtd">
<svg version="1.1" xmlns="http://www.w3.org/2000/svg" xmlns:xlink="http://www.w3.org/1999/xlink" preserveAspectRatio="xMidYMid meet" viewBox="0 0 180 180" width="180" height="180"><defs><path d="M72 105.22C72 106.88 73.34 108.22 75 108.22C78 108.22 102 108.22 105 108.22C106.66 108.22 108 106.88 108 105.22C108 102.22 108 78.22 108 75.22C108 73.56 106.66 72.22 105 72.22C102.9 72.22 86.12 72.22 84.02 72.22C83.24 72.22 82.48 72.53 81.92 73.08C81.02 73.97 73.8 81.07 72.9 81.96C72.32 82.52 72 83.29 72 84.1C72 88.32 72 103.11 72 105.22ZM78 85.35L85.25 78.22L102 78.22L102 102.22L78 102.22L78 85.35Z" id="b6Nt5aHhT"></path><path d="M156.43 138.22C156 138.22 153.86 138.22 150 138.22C150 125.8 150 118.9 150 117.52C160.73 110.27 170.56 101.77 179.27 92.18C180.24 91.06 180.24 89.39 179.27 88.26C167.38 75.2 153.44 64.17 138 55.59C138 53.81 138 44.86 138 28.76C144.2 24.33 147.65 21.86 148.33 21.37C150.47 23.2 153.19 24.2 156 24.22C162.69 24.28 168.16 18.9 168.22 12.22C168.27 5.53 162.9 0.06 156.21 0C149.53 -0.06 144.06 5.31 144 12C143.99 13.54 144.27 15.07 144.82 16.5C143.67 17.33 134.41 23.95 133.25 24.78C132.47 25.34 132 26.25 132 27.22C132 29.75 132 49.98 132 52.5C119.84 46.46 106.56 42.99 93 42.3C93 40.45 93 25.64 93 23.79C99.42 22.13 103.28 15.59 101.62 9.17C99.96 2.75 93.42 -1.11 87 0.55C80.58 2.21 76.72 8.75 78.38 15.17C79.47 19.4 82.77 22.7 87 23.79C87 25.64 87 40.45 87 42.3C74.54 42.91 62.32 45.9 51 51.13C51 48.74 51 29.61 51 27.22C51 26.25 50.53 25.34 49.75 24.78C48.59 23.95 39.33 17.33 38.17 16.5C40.53 10.32 37.43 3.4 31.25 1.04C25.06 -1.31 18.14 1.79 15.79 7.97C13.43 14.15 16.53 21.07 22.71 23.43C24.08 23.95 25.53 24.22 27 24.22C29.81 24.2 32.53 23.2 34.66 21.37C35.35 21.86 38.8 24.33 45 28.76C45 43.91 45 52.32 45 54C28.37 62.76 13.39 74.35 0.73 88.26C-0.24 89.38 -0.24 91.05 0.73 92.18C11.06 103.52 22.93 113.35 36 121.38C36 122.5 36 128.12 36 138.22C32.14 138.22 30 138.22 29.57 138.22C27.92 131.8 21.37 127.94 14.95 129.6C8.54 131.26 4.68 137.8 6.33 144.22C7.99 150.64 14.54 154.5 20.95 152.84C25.18 151.75 28.48 148.45 29.57 144.22C30.52 144.22 38.06 144.22 39 144.22C40.66 144.22 42 142.88 42 141.22C42 139.58 42 126.48 42 124.84C54.03 131.64 67.28 136.02 81 137.74C81 139.18 81 146.33 81 159.22C77.14 159.22 75 159.22 74.57 159.22C72.92 152.8 66.37 148.95 59.95 150.6C53.54 152.26 49.68 158.8 51.34 165.22C52.99 171.64 59.54 175.5 65.95 173.84C70.18 172.75 73.48 169.45 74.57 165.22C75.52 165.22 83.06 165.22 84 165.22C85.66 165.22 87 163.88 87 162.22C87 159.81 87 140.55 87 138.14C88 138.17 88.99 138.22 90 138.22C97.08 138.19 104.13 137.3 111 135.57C111 137.67 111 154.54 111 156.65C104.58 158.3 100.72 164.85 102.38 171.27C104.04 177.68 110.58 181.54 117 179.89C123.42 178.23 127.28 171.68 125.62 165.27C124.53 161.04 121.23 157.74 117 156.65C117 154.37 117 136.16 117 133.88C126.47 130.82 135.54 126.62 144 121.38C144 123.36 144 139.24 144 141.22C144 142.88 145.34 144.22 147 144.22C147.94 144.22 155.48 144.22 156.43 144.22C158.09 150.62 164.64 154.46 171.04 152.79C177.44 151.12 181.28 144.58 179.61 138.18C178.23 132.9 173.46 129.21 168 129.22C162.54 129.24 157.79 132.94 156.43 138.22ZM162 12.22C162 15.53 159.31 18.22 156 18.22C152.69 18.22 150 15.53 150 12.22C150 8.9 152.69 6.22 156 6.22C159.31 6.22 162 8.9 162 12.22ZM21 12.22C21 8.9 23.69 6.22 27 6.22C30.31 6.22 33 8.9 33 12.22C33 15.53 30.31 18.22 27 18.22C23.69 18.22 21 15.53 21 12.22ZM12 141.22C12 137.91 14.68 135.22 18 135.22C21.31 135.22 24 137.91 24 141.22C24 144.53 21.31 147.22 18 147.22C14.68 147.22 12 144.53 12 141.22ZM57 162.22C57 158.91 59.69 156.22 63 156.22C66.31 156.22 69 158.91 69 162.22C69 165.54 66.31 168.22 63 168.22C59.69 168.22 57 165.54 57 162.22ZM114 174.22C110.69 174.22 108 171.54 108 168.22C108 164.91 110.69 162.22 114 162.22C117.31 162.22 120 164.91 120 168.22C120 171.54 117.31 174.22 114 174.22ZM122.44 125.49C141.92 107.71 143.3 77.49 125.51 58.01C124.54 56.95 123.52 55.93 122.46 54.96C147.8 65.19 167.1 84.1 172.92 90.22C167.11 96.35 147.8 115.27 122.44 125.49ZM93 60.22C93 53.11 93 49.16 93 48.37C96.05 48.58 99.07 49.12 102 49.99C102 50.67 102 54.08 102 60.22L93 60.22ZM78 60.22C78 54.08 78 50.67 78 49.99C80.93 49.12 83.95 48.58 87 48.37C87 49.16 87 53.11 87 60.22L78 60.22ZM114 66.22L114 114.22L66 114.22L66 66.22L114 66.22ZM87 120.22C87 127.33 87 131.28 87 132.07C83.95 131.86 80.93 131.32 78 130.45C78 129.77 78 126.36 78 120.22L87 120.22ZM93 120.22L102 120.22C102 126.36 102 129.77 102 130.45C99.07 131.32 96.05 131.86 93 132.07C93 130.49 93 126.54 93 120.22ZM108 120.22C113.4 120.22 116.4 120.22 117 120.22C118.66 120.22 120 118.88 120 117.22C120 116.62 120 113.62 120 108.22C124.73 108.22 127.36 108.22 127.89 108.22C123.73 116.93 116.71 123.95 108 128.11C108 127.06 108 124.43 108 120.22ZM120 102.22L120 93.22C127.11 93.22 131.06 93.22 131.85 93.22C131.64 96.27 131.1 99.29 130.23 102.22C128.87 102.22 125.46 102.22 120 102.22ZM120 87.22L120 78.22C126.14 78.22 129.55 78.22 130.23 78.22C131.1 81.15 131.64 84.17 131.85 87.22C130.27 87.22 126.32 87.22 120 87.22ZM120 72.22C120 66.82 120 63.82 120 63.22C120 61.56 118.66 60.22 117 60.22C116.4 60.22 113.4 60.22 108 60.22C108 55.48 108 52.85 108 52.33C116.71 56.49 123.73 63.51 127.89 72.22C126.84 72.22 124.21 72.22 120 72.22ZM72 60.22C66.6 60.22 63.6 60.22 63 60.22C61.34 60.22 60 61.56 60 63.22C60 63.82 60 66.82 60 72.22C55.27 72.22 52.64 72.22 52.11 72.22C56.27 63.51 63.29 56.49 72 52.33C72 53.38 72 56.01 72 60.22ZM60 78.22L60 87.22C52.89 87.22 48.94 87.22 48.15 87.22C48.36 84.17 48.9 81.15 49.77 78.22C51.13 78.22 54.54 78.22 60 78.22ZM60 93.22L60 102.22C53.86 102.22 50.45 102.22 49.77 102.22C48.9 99.29 48.36 96.27 48.15 93.22C49.73 93.22 53.68 93.22 60 93.22ZM60 108.22C60 113.62 60 116.62 60 117.22C60 118.88 61.34 120.22 63 120.22C63.6 120.22 66.6 120.22 72 120.22C72 124.95 72 127.58 72 128.11C63.29 123.95 56.27 116.93 52.11 108.22C53.16 108.22 55.79 108.22 60 108.22ZM90 6.22C93.31 6.22 96 8.9 96 12.22C96 15.53 93.31 18.22 90 18.22C86.69 18.22 84 15.53 84 12.22C84 8.9 86.69 6.22 90 6.22ZM57.56 54.94C38.08 72.73 36.7 102.94 54.49 122.43C55.46 123.49 56.48 124.51 57.54 125.48C32.2 115.24 12.9 96.34 7.08 90.22C12.89 84.09 32.19 65.17 57.56 54.94ZM162 141.22C162 137.91 164.69 135.22 168 135.22C171.31 135.22 174 137.91 174 141.22C174 144.53 171.31 147.22 168 147.22C164.69 147.22 162 144.53 162 141.22Z" id="g3VfTDb7bk"></path><path d="M72 69.22C70.34 69.22 69 70.56 69 72.22C69 73.88 70.34 75.22 72 75.22C73.66 75.22 75 73.88 75 72.22C75 70.56 73.66 69.22 72 69.22Z" id="algfvvnDH"></path></defs><g><g><g><use xlink:href="#b6Nt5aHhT" opacity="1" fill="#000000" fill-opacity="1"></use><g><use xlink:href="#b6Nt5aHhT" opacity="1" fill-opacity="0" stroke="#000000" stroke-width="1" stroke-opacity="0"></use></g></g><g><use xlink:href="#g3VfTDb7bk" opacity="1" fill="#000000" fill-opacity="1"></use><g><use xlink:href="#g3VfTDb7bk" opacity="1" fill-opacity="0" stroke="#000000" stroke-width="1" stroke-opacity="0"></use></g></g><g><use xlink:href="#algfvvnDH" opacity="1" fill="#000000" fill-opacity="1"></use><g><use xlink:href="#algfvvnDH" opacity="1" fill-opacity="0" stroke="#000000" stroke-width="1" stroke-opacity="0"></use></g></g></g></g></svg>