<?xml version="1.0" encoding="UTF-8" standalone="no"?>
<!DOCTYPE svg PUBLIC "-//W3C//DTD SVG 1.1//EN" "http://www.w3.org/Graphics/SVG/1.1/DTD/svg11.dtd">
<svg version="1.1" xmlns="http://www.w3.org/2000/svg" xmlns:xlink="http://www.w3.org/1999/xlink" preserveAspectRatio="xMidYMid meet" viewBox="0 0 210 210" width="180" height="180"><defs><path d="M84.73 121.76C84.73 123.6 86.22 125.09 88.06 125.09C91.4 125.09 118.06 125.09 121.4 125.09C123.24 125.09 124.73 123.6 124.73 121.76C124.73 118.43 124.73 91.76 124.73 88.43C124.73 86.59 123.24 85.09 121.4 85.09C119.07 85.09 100.42 85.09 98.09 85.09C97.22 85.09 96.38 85.44 95.76 86.05C94.75 87.04 86.73 94.93 85.73 95.91C85.09 96.54 84.73 97.4 84.73 98.29C84.73 102.98 84.73 119.41 84.73 121.76ZM91.4 99.69L99.45 91.76L118.06 91.76L118.06 118.43L91.4 118.43L91.4 99.69Z" id="e1bCV4j6MV"></path><path d="M178.81 158.43C178.33 158.43 175.95 158.43 171.67 158.43C171.67 144.63 171.67 136.96 171.67 135.43C183.59 127.38 194.51 117.93 204.19 107.28C205.27 106.02 205.27 104.17 204.19 102.92C190.97 88.41 175.49 76.15 158.33 66.62C158.33 64.64 158.33 54.7 158.33 36.81C165.22 31.88 169.05 29.15 169.82 28.6C172.19 30.63 175.21 31.75 178.33 31.76C185.76 31.83 191.84 25.86 191.91 18.43C191.97 11 186 4.92 178.57 4.86C171.14 4.79 165.07 10.76 165 18.19C164.98 19.9 165.3 21.6 165.92 23.19C164.63 24.11 154.35 31.46 153.06 32.38C152.19 33.01 151.67 34.02 151.67 35.09C151.67 37.9 151.67 60.38 151.67 63.19C138.15 56.48 123.4 52.62 108.33 51.86C108.33 49.8 108.33 33.34 108.33 31.29C115.46 29.45 119.75 22.17 117.91 15.04C116.07 7.91 108.8 3.63 101.67 5.47C94.54 7.31 90.25 14.58 92.09 21.71C93.3 26.41 96.97 30.07 101.67 31.29C101.67 33.34 101.67 49.8 101.67 51.85C87.83 52.53 74.25 55.86 61.67 61.66C61.67 59 61.67 37.75 61.67 35.09C61.67 34.02 61.15 33.01 60.27 32.38C58.99 31.46 48.7 24.11 47.42 23.19C50.03 16.32 46.59 8.63 39.72 6.01C32.85 3.4 25.16 6.84 22.54 13.71C19.92 20.58 23.37 28.27 30.24 30.89C31.76 31.47 33.37 31.76 35 31.76C38.12 31.75 41.14 30.63 43.52 28.6C44.28 29.15 48.11 31.88 55 36.81C55 53.64 55 62.99 55 64.86C36.52 74.59 19.87 87.47 5.81 102.91C4.73 104.17 4.73 106.02 5.81 107.27C17.29 119.87 30.48 130.79 45 139.71C45 140.96 45 147.2 45 158.43C40.71 158.43 38.33 158.43 37.86 158.43C36.02 151.3 28.75 147.01 21.62 148.85C14.49 150.69 10.2 157.96 12.04 165.09C13.88 172.22 21.15 176.51 28.28 174.67C32.98 173.46 36.65 169.79 37.86 165.09C38.91 165.09 47.28 165.09 48.33 165.09C50.17 165.09 51.67 163.6 51.67 161.76C51.67 159.94 51.67 145.38 51.67 143.56C65.04 151.12 79.76 155.99 95 157.9C95 159.49 95 167.44 95 181.76C90.72 181.76 88.34 181.76 87.86 181.76C86.02 174.63 78.75 170.34 71.62 172.18C64.49 174.02 60.2 181.3 62.04 188.43C63.88 195.56 71.15 199.84 78.28 198C82.98 196.79 86.65 193.12 87.86 188.43C88.91 188.43 97.29 188.43 98.33 188.43C100.17 188.43 101.67 186.93 101.67 185.09C101.67 182.42 101.67 161.01 101.67 158.33C102.78 158.37 103.88 158.43 105 158.43C112.87 158.39 120.7 157.4 128.33 155.48C128.33 157.82 128.33 176.56 128.33 178.9C121.2 180.74 116.92 188.01 118.76 195.14C120.6 202.27 127.87 206.56 135 204.72C142.13 202.88 146.42 195.61 144.58 188.48C143.36 183.78 139.7 180.11 135 178.9C135 176.37 135 156.14 135 153.61C145.52 150.2 155.6 145.54 165 139.71C165 141.92 165 159.55 165 161.76C165 163.6 166.49 165.09 168.33 165.09C169.38 165.09 177.76 165.09 178.81 165.09C180.66 172.21 187.93 176.47 195.04 174.62C202.16 172.76 206.42 165.49 204.57 158.38C203.04 152.51 197.73 148.42 191.67 148.43C185.61 148.45 180.32 152.56 178.81 158.43ZM185 18.43C185 22.11 182.02 25.09 178.33 25.09C174.65 25.09 171.67 22.11 171.67 18.43C171.67 14.75 174.65 11.76 178.33 11.76C182.02 11.76 185 14.75 185 18.43ZM28.33 18.43C28.33 14.75 31.32 11.76 35 11.76C38.68 11.76 41.67 14.75 41.67 18.43C41.67 22.11 38.68 25.09 35 25.09C31.32 25.09 28.33 22.11 28.33 18.43ZM18.33 161.76C18.33 158.08 21.32 155.09 25 155.09C28.68 155.09 31.67 158.08 31.67 161.76C31.67 165.44 28.68 168.43 25 168.43C21.32 168.43 18.33 165.44 18.33 161.76ZM68.33 185.09C68.33 181.41 71.32 178.43 75 178.43C78.68 178.43 81.67 181.41 81.67 185.09C81.67 188.77 78.68 191.76 75 191.76C71.32 191.76 68.33 188.77 68.33 185.09ZM131.67 198.43C127.98 198.43 125 195.44 125 191.76C125 188.08 127.98 185.09 131.67 185.09C135.35 185.09 138.33 188.08 138.33 191.76C138.33 195.44 135.35 198.43 131.67 198.43ZM141.04 144.29C162.69 124.52 164.22 90.95 144.45 69.31C143.38 68.13 142.25 67 141.07 65.92C169.22 77.29 190.67 98.3 197.14 105.09C190.67 111.9 169.23 132.92 141.04 144.29ZM108.33 71.76C108.33 63.86 108.33 59.47 108.33 58.6C111.72 58.83 115.08 59.43 118.33 60.39C118.33 61.15 118.33 64.94 118.33 71.76L108.33 71.76ZM91.67 71.76C91.67 64.94 91.67 61.15 91.67 60.39C94.92 59.43 98.28 58.83 101.67 58.6C101.67 59.47 101.67 63.86 101.67 71.76L91.67 71.76ZM131.67 78.43L131.67 131.76L78.33 131.76L78.33 78.43L131.67 78.43ZM101.67 138.43C101.67 146.32 101.67 150.71 101.67 151.59C98.28 151.36 94.92 150.76 91.67 149.79C91.67 149.03 91.67 145.25 91.67 138.43L101.67 138.43ZM108.33 138.43L118.33 138.43C118.33 145.25 118.33 149.03 118.33 149.79C115.08 150.76 111.72 151.36 108.33 151.59C108.33 149.83 108.33 145.45 108.33 138.43ZM125 138.43C131 138.43 134.33 138.43 135 138.43C136.84 138.43 138.33 136.93 138.33 135.09C138.33 134.43 138.33 131.09 138.33 125.09C143.59 125.09 146.52 125.09 147.1 125.09C142.48 134.77 134.68 142.57 125 147.19C125 146.02 125 143.1 125 138.43ZM138.33 118.43L138.33 108.43C146.23 108.43 150.62 108.43 151.5 108.43C151.27 111.82 150.66 115.17 149.7 118.43C148.18 118.43 144.4 118.43 138.33 118.43ZM138.33 101.76L138.33 91.76C145.15 91.76 148.94 91.76 149.7 91.76C150.66 95.02 151.27 98.37 151.5 101.76C149.74 101.76 145.35 101.76 138.33 101.76ZM138.33 85.09C138.33 79.09 138.33 75.76 138.33 75.09C138.33 73.25 136.84 71.76 135 71.76C134.33 71.76 131 71.76 125 71.76C125 66.5 125 63.58 125 62.99C134.68 67.62 142.48 75.42 147.1 85.09C145.93 85.09 143.01 85.09 138.33 85.09ZM85 71.76C79 71.76 75.67 71.76 75 71.76C73.16 71.76 71.67 73.25 71.67 75.09C71.67 75.76 71.67 79.09 71.67 85.09C66.41 85.09 63.48 85.09 62.9 85.09C67.52 75.42 75.32 67.62 85 62.99C85 64.16 85 67.08 85 71.76ZM71.67 91.76L71.67 101.76C63.77 101.76 59.38 101.76 58.5 101.76C58.73 98.37 59.34 95.02 60.3 91.76C61.81 91.76 65.6 91.76 71.67 91.76ZM71.67 108.43L71.67 118.43C64.85 118.43 61.06 118.43 60.3 118.43C59.34 115.17 58.73 111.82 58.5 108.43C60.26 108.43 64.65 108.43 71.67 108.43ZM71.67 125.09C71.67 131.09 71.67 134.43 71.67 135.09C71.67 136.93 73.16 138.43 75 138.43C75.67 138.43 79 138.43 85 138.43C85 143.69 85 146.61 85 147.19C75.32 142.57 67.52 134.77 62.9 125.09C64.07 125.09 66.99 125.09 71.67 125.09ZM105 11.76C108.68 11.76 111.67 14.75 111.67 18.43C111.67 22.11 108.68 25.09 105 25.09C101.32 25.09 98.33 22.11 98.33 18.43C98.33 14.75 101.32 11.76 105 11.76ZM68.96 65.9C47.31 85.66 45.78 119.23 65.54 140.88C66.62 142.06 67.75 143.19 68.93 144.27C40.78 132.9 19.33 111.89 12.86 105.09C19.33 98.29 40.77 77.26 68.96 65.9ZM185 161.76C185 158.08 187.98 155.09 191.67 155.09C195.35 155.09 198.33 158.08 198.33 161.76C198.33 165.44 195.35 168.43 191.67 168.43C187.98 168.43 185 165.44 185 161.76Z" id="a3uSvu89Yf"></path><path d="M85 81.76C83.16 81.76 81.67 83.25 81.67 85.09C81.67 86.93 83.16 88.43 85 88.43C86.84 88.43 88.33 86.93 88.33 85.09C88.33 83.25 86.84 81.76 85 81.76Z" id="bPclo4Uj1"></path><path d="M32.4 161.86C32.4 165.71 29.1 168.84 25.04 168.84C20.97 168.84 17.67 165.71 17.67 161.86C17.67 158.01 20.97 154.88 25.04 154.88C29.1 154.88 32.4 158.01 32.4 161.86Z" id="aozMHIR0"></path><path d="M138.55 192.08C138.55 195.94 135.25 199.06 131.19 199.06C127.12 199.06 123.82 195.94 123.82 192.08C123.82 188.23 127.12 185.11 131.19 185.11C135.25 185.11 138.55 188.23 138.55 192.08Z" id="c2MdXrQLk2"></path><path d="M199.69 161.86C199.69 165.71 196.39 168.84 192.32 168.84C188.26 168.84 184.96 165.71 184.96 161.86C184.96 158.01 188.26 154.88 192.32 154.88C196.39 154.88 199.69 158.01 199.69 161.86Z" id="dJKfddxDH"></path><path d="M81.67 185.11C81.67 188.96 78.37 192.08 74.3 192.08C70.24 192.08 66.94 188.96 66.94 185.11C66.94 181.26 70.24 178.13 74.3 178.13C78.37 178.13 81.67 181.26 81.67 185.11Z" id="aBmgl63pY"></path><path d="M112.36 18.49C112.36 22.35 109.06 25.47 105 25.47C100.94 25.47 97.64 22.35 97.64 18.49C97.64 14.64 100.94 11.52 105 11.52C109.06 11.52 112.36 14.64 112.36 18.49Z" id="h1DKV8Hmnv"></path><path d="M184.94 17.97C185.21 21.81 182.15 25.17 178.09 25.46C174.04 25.75 170.52 22.86 170.25 19.02C169.97 15.18 173.04 11.83 177.1 11.54C181.15 11.25 184.66 14.13 184.94 17.97Z" id="b19hzjYcAZ"></path><path d="M42.32 18.49C42.32 22.35 39.02 25.47 34.96 25.47C30.89 25.47 27.59 22.35 27.59 18.49C27.59 14.64 30.89 11.52 34.96 11.52C39.02 11.52 42.32 14.64 42.32 18.49Z" id="a5AiECYfIO"></path><path d="M91.41 99.32L118.05 99.32L118.05 118.54L91.41 118.54L91.41 99.32Z" id="a12AarJSw0"></path><path d="M99.27 91.36L118.05 91.36L118.05 100.65L99.27 100.65L99.27 91.36Z" id="dyMMZxmVI"></path><path d="M92.6 96L99.27 96L99.27 102.67L92.6 102.67L92.6 96Z" id="bp4d6OWOI"></path><path d="M94.3 92.66L100.97 92.66L100.97 99.32L94.3 99.32L94.3 92.66Z" id="c14cluTIzz"></path></defs><g><g><g><use xlink:href="#e1bCV4j6MV" opacity="1" fill="#000000" fill-opacity="1"></use><g><use xlink:href="#e1bCV4j6MV" opacity="1" fill-opacity="0" stroke="#000000" stroke-width="1" stroke-opacity="0"></use></g></g><g><use xlink:href="#a3uSvu89Yf" opacity="1" fill="#000000" fill-opacity="1"></use><g><use xlink:href="#a3uSvu89Yf" opacity="1" fill-opacity="0" stroke="#000000" stroke-width="1" stroke-opacity="0"></use></g></g><g><use xlink:href="#bPclo4Uj1" opacity="1" fill="#000000" fill-opacity="1"></use><g><use xlink:href="#bPclo4Uj1" opacity="1" fill-opacity="0" stroke="#000000" stroke-width="1" stroke-opacity="0"></use></g></g><g><use xlink:href="#aozMHIR0" opacity="1" fill="#c085cd" fill-opacity="1"></use></g><g><use xlink:href="#c2MdXrQLk2" opacity="1" fill="#c085cd" fill-opacity="1"></use></g><g><use xlink:href="#dJKfddxDH" opacity="1" fill="#c085cd" fill-opacity="1"></use></g><g><use xlink:href="#aBmgl63pY" opacity="1" fill="#c085cd" fill-opacity="1"></use></g><g><use xlink:href="#h1DKV8Hmnv" opacity="1" fill="#c085cd" fill-opacity="1"></use></g><g><use xlink:href="#b19hzjYcAZ" opacity="1" fill="#c085cd" fill-opacity="1"></use></g><g><use xlink:href="#a5AiECYfIO" opacity="1" fill="#c085cd" fill-opacity="1"></use></g><g><use xlink:href="#a12AarJSw0" opacity="1" fill="#65e56f" fill-opacity="1"></use></g><g><use xlink:href="#dyMMZxmVI" opacity="1" fill="#65e56f" fill-opacity="1"></use></g><g><use xlink:href="#bp4d6OWOI" opacity="1" fill="#65e56f" fill-opacity="1"></use></g><g><use xlink:href="#c14cluTIzz" opacity="1" fill="#65e56f" fill-opacity="1"></use></g></g></g></svg>